<svg width="1280" height="820" viewBox="0 0 1280 820" fill="none" xmlns="http://www.w3.org/2000/svg">
  <rect width="1280" height="820" rx="32" fill="#F6EFE6"/>
  <rect x="24" y="24" width="1232" height="772" rx="28" fill="#FFFDF9" stroke="#E7D7C8"/>
  <text x="72" y="86" fill="#B0552B" font-family="Georgia, serif" font-size="24" letter-spacing="4">REFERENCE-BASED CVSS V3.1</text>
  <text x="72" y="166" fill="#201B18" font-family="Georgia, serif" font-size="76" font-weight="700">CVSS Re-score</text>
  <text x="72" y="238" fill="#62554D" font-family="Georgia, serif" font-size="72">Workbench</text>
  <text x="72" y="292" fill="#5A4D45" font-family="Georgia, serif" font-size="28">Review published scores, inspect evidence-backed changes, and keep raw JSON one click away.</text>

  <rect x="72" y="336" width="1136" height="108" rx="24" fill="#F8F4EE" stroke="#E5D7C7"/>
  <text x="104" y="382" fill="#201B18" font-family="Georgia, serif" font-size="22" font-weight="700">CVE ID</text>
  <rect x="104" y="396" width="720" height="26" rx="13" fill="#FFFFFF" stroke="#DCCBBA"/>
  <text x="124" y="414" fill="#7A6B61" font-family="Arial, sans-serif" font-size="16">CVE-2026-4366 or CVE-2026-32746</text>
  <rect x="854" y="382" width="160" height="40" rx="20" fill="#201B18"/>
  <text x="902" y="408" fill="#FFFDF9" font-family="Arial, sans-serif" font-size="16" font-weight="700">Analyze</text>
  <rect x="1034" y="382" width="148" height="40" rx="20" fill="#F1E7DC"/>
  <text x="1064" y="408" fill="#5A4D45" font-family="Arial, sans-serif" font-size="15">Both modes</text>

  <text x="72" y="494" fill="#7B6E66" font-family="Arial, sans-serif" font-size="18" font-weight="700" letter-spacing="1.5">AT A GLANCE</text>

  <rect x="72" y="518" width="264" height="150" rx="24" fill="#FFFDF9" stroke="#E5D7C7"/>
  <text x="98" y="558" fill="#7B6E66" font-family="Arial, sans-serif" font-size="18">Published score</text>
  <text x="98" y="624" fill="#201B18" font-family="Georgia, serif" font-size="56" font-weight="700">9.8</text>

  <rect x="352" y="518" width="264" height="150" rx="24" fill="#FFFDF9" stroke="#E5D7C7"/>
  <text x="378" y="558" fill="#7B6E66" font-family="Arial, sans-serif" font-size="18">Re-scored</text>
  <text x="378" y="624" fill="#201B18" font-family="Georgia, serif" font-size="56" font-weight="700">9.4</text>

  <rect x="632" y="518" width="264" height="150" rx="24" fill="#FFFDF9" stroke="#E5D7C7"/>
  <text x="658" y="558" fill="#7B6E66" font-family="Arial, sans-serif" font-size="18">Delta</text>
  <text x="658" y="624" fill="#B0552B" font-family="Georgia, serif" font-size="56" font-weight="700">-0.4</text>

  <rect x="912" y="518" width="296" height="150" rx="24" fill="#FFF7F1" stroke="#EAB690"/>
  <text x="938" y="558" fill="#7B6E66" font-family="Arial, sans-serif" font-size="18">Confidence</text>
  <text x="938" y="608" fill="#B0552B" font-family="Georgia, serif" font-size="38" font-weight="700">Low confidence</text>
  <rect x="938" y="624" width="126" height="28" rx="14" fill="#F6D8BF"/>
  <text x="966" y="643" fill="#8F4A2A" font-family="Arial, sans-serif" font-size="14" font-weight="700">Needs review</text>

  <rect x="72" y="694" width="544" height="74" rx="24" fill="#FFFDF9" stroke="#E5D7C7"/>
  <text x="96" y="732" fill="#201B18" font-family="Georgia, serif" font-size="28" font-weight="700">Changed Metrics</text>
  <text x="96" y="756" fill="#5A4D45" font-family="Arial, sans-serif" font-size="18">Human-readable metric diffs with rationale instead of raw JSON blobs.</text>

  <rect x="632" y="694" width="576" height="74" rx="24" fill="#FFFDF9" stroke="#E5D7C7"/>
  <text x="656" y="732" fill="#201B18" font-family="Georgia, serif" font-size="28" font-weight="700">Evidence + Strict Mode</text>
  <text x="656" y="756" fill="#5A4D45" font-family="Arial, sans-serif" font-size="18">Evidence-backed snippets, fallback visibility, and a strict no-assumptions result.</text>
</svg>
